<?xml version="1.0" encoding="UTF-8"?>
<svg xmlns="http://www.w3.org/2000/svg" xmlns:xlink="http://www.w3.org/1999/xlink" viewBox="0 0 48 48" width="48px" height="48px">
<defs>
<linearGradient id="linear0" gradientUnits="userSpaceOnUse" x1="-25.147829" y1="33.353668" x2="141.136749" y2="120.15992" gradientTransform="matrix(0.27907,0,0,0.27907,0,0)">
<stop offset="0" style="stop-color:rgb(98.039216%,75.294119%,9.019608%);stop-opacity:1;"/>
<stop offset="0.909" style="stop-color:rgb(88.235295%,67.058825%,17.647059%);stop-opacity:1;"/>
</linearGradient>
<linearGradient id="linear1" gradientUnits="userSpaceOnUse" x1="20.96608" y1="33.160172" x2="66.65358" y2="98.147499" gradientTransform="matrix(0.27907,0,0,0.27907,0,0)">
<stop offset="0" style="stop-color:rgb(98.431373%,99.607843%,95.294118%);stop-opacity:1;"/>
<stop offset="0.909" style="stop-color:rgb(88.627452%,89.411765%,89.019608%);stop-opacity:1;"/>
</linearGradient>
<linearGradient id="linear2" gradientUnits="userSpaceOnUse" x1="7.16667" y1="68.083328" x2="78.833328" y2="68.083328" gradientTransform="matrix(0.27907,0,0,0.27907,0,0)">
<stop offset="0" style="stop-color:rgb(98.431373%,99.607843%,95.294118%);stop-opacity:1;"/>
<stop offset="0.909" style="stop-color:rgb(88.627452%,89.411765%,89.019608%);stop-opacity:1;"/>
</linearGradient>
<linearGradient id="linear3" gradientUnits="userSpaceOnUse" x1="60.432919" y1="140.778427" x2="161.124573" y2="142.587997" gradientTransform="matrix(0.27907,0,0,0.27907,0,0)">
<stop offset="0" style="stop-color:rgb(89.019608%,66.274512%,9.019608%);stop-opacity:1;"/>
<stop offset="0.464" style="stop-color:rgb(84.313726%,61.176473%,11.764706%);stop-opacity:1;"/>
</linearGradient>
<linearGradient id="linear4" gradientUnits="userSpaceOnUse" x1="-17.48308" y1="45.737671" x2="128.88533" y2="110.287827" gradientTransform="matrix(0.27907,0,0,0.27907,0,0)">
<stop offset="0.34" style="stop-color:rgb(100%,93.725491%,69.803923%);stop-opacity:1;"/>
<stop offset="0.485" style="stop-color:rgb(100%,92.941177%,67.843139%);stop-opacity:1;"/>
<stop offset="0.652" style="stop-color:rgb(100%,91.37255%,62.352943%);stop-opacity:1;"/>
<stop offset="0.828" style="stop-color:rgb(99.607843%,88.627452%,53.725493%);stop-opacity:1;"/>
<stop offset="1" style="stop-color:rgb(99.607843%,84.705883%,41.960785%);stop-opacity:1;"/>
</linearGradient>
<radialGradient id="radial0" gradientUnits="userSpaceOnUse" cx="135.578995" cy="176.719254" fx="135.578995" fy="176.719254" r="193.052078" gradientTransform="matrix(0.27907,0,0,0.27907,0,0)">
<stop offset="0.199" style="stop-color:rgb(99.607843%,78.431374%,19.607843%);stop-opacity:1;"/>
<stop offset="0.601" style="stop-color:rgb(98.823529%,83.92157%,40.392157%);stop-opacity:1;"/>
<stop offset="0.68" style="stop-color:rgb(99.215686%,85.490197%,45.882353%);stop-opacity:1;"/>
<stop offset="0.886" style="stop-color:rgb(99.607843%,89.411765%,58.823532%);stop-opacity:1;"/>
<stop offset="1" style="stop-color:rgb(100%,90.980393%,63.529414%);stop-opacity:1;"/>
</radialGradient>
</defs>
<g id="surface66165720">
<path style=" stroke:none;fill-rule:nonzero;fill:url(#linear0);" d="M 44.5 41 L 3.5 41 C 2.117188 41 1 39.882812 1 38.5 L 1 7.5 C 1 6.117188 2.117188 5 3.5 5 L 15.097656 5 C 16.617188 5 18.050781 5.691406 19 6.878906 L 21.5 10 L 44.5 10 C 45.882812 10 47 11.117188 47 12.5 L 47 38.5 C 47 39.882812 45.882812 41 44.5 41 Z M 44.5 41 "/>
<path style=" stroke:none;fill-rule:nonzero;fill:url(#linear1);" d="M 2 25 L 22 25 L 22 11 L 4 11 C 2.894531 11 2 11.894531 2 13 Z M 2 25 "/>
<path style=" stroke:none;fill-rule:nonzero;fill:url(#linear2);" d="M 2 26 L 22 26 L 22 12 L 4 12 C 2.894531 12 2 12.894531 2 14 Z M 2 26 "/>
<path style=" stroke:none;fill-rule:nonzero;fill:url(#linear3);" d="M 1 37.875 L 1 38.5 C 1 39.882812 2.117188 41 3.5 41 L 44.5 41 C 45.882812 41 47 39.882812 47 38.5 L 47 37.875 Z M 1 37.875 "/>
<path style=" stroke:none;fill-rule:nonzero;fill:url(#linear4);" d="M 44.5 11 L 21.5 11 L 20.261719 11.824219 C 19.113281 12.589844 17.761719 13 16.382812 13 L 3.5 13 C 2.117188 13 1 14.117188 1 15.5 L 1 37.5 C 1 38.882812 2.117188 40 3.5 40 L 44.5 40 C 45.882812 40 47 38.882812 47 37.5 L 47 13.5 C 47 12.117188 45.882812 11 44.5 11 Z M 44.5 11 "/>
<path style=" stroke:none;fill-rule:nonzero;fill:url(#radial0);" d="M 44.5 40 L 3.5 40 C 2.117188 40 1 38.882812 1 37.5 L 1 16.5 C 1 15.117188 2.117188 14 3.5 14 L 16.757812 14 C 18.136719 14 19.488281 13.589844 20.640625 12.824219 L 21.875 12 L 44.5 12 C 45.882812 12 47 13.117188 47 14.5 L 47 37.5 C 47 38.882812 45.882812 40 44.5 40 Z M 44.5 40 "/>
</g>
</svg>
